<svg id="Layer_1" data-name="Layer 1" xmlns="http://www.w3.org/2000/svg" viewBox="0 0 512 512" width="28px" height="28px">
	<defs>
		<style>.cls-1{fill:#26a3f7;}.cls-2{fill:#dde5e8;}.cls-3{fill:#1d85b2;}.cls-4{fill:#f47878;}.cls-5{fill:#afc3c9;}</style>
	</defs>
	<path class="cls-1" d="M0,115.2V64A64,64,0,0,1,64,0H448a64,64,0,0,1,64,64v51.2Z"/>
	<path class="cls-2" d="M512,115.2V448a64,64,0,0,1-64,64H64A64,64,0,0,1,0,448V115.2Z"/>
	<circle class="cls-3" cx="70.4" cy="57.6" r="19.2"/>
	<circle class="cls-3" cx="121.6" cy="57.6" r="19.2"/>
	<circle class="cls-3" cx="172.8" cy="57.6" r="19.2"/>
	<rect class="cls-4" x="64" y="179.2" width="179.2" height="268.8" rx="32" ry="32"/>
	<path class="cls-5" d="M448,204.8a12.8,12.8,0,0,1-12.8,12.8H294.4a12.8,12.8,0,0,1-12.8-12.8h0A12.8,12.8,0,0,1,294.4,192H435.2A12.8,12.8,0,0,1,448,204.8Z"/>
	<path class="cls-5" d="M448,256a12.8,12.8,0,0,1-12.8,12.8H294.4A12.8,12.8,0,0,1,281.6,256h0a12.8,12.8,0,0,1,12.8-12.8H435.2A12.8,12.8,0,0,1,448,256Z"/>
	<path class="cls-5" d="M396.8,307.2A12.8,12.8,0,0,1,384,320H294.4a12.8,12.8,0,0,1-12.8-12.8h0a12.8,12.8,0,0,1,12.8-12.8H384a12.8,12.8,0,0,1,12.8,12.8Z"/>
	<path class="cls-5" d="M448,384a12.8,12.8,0,0,1-12.8,12.8H294.4A12.8,12.8,0,0,1,281.6,384h0a12.8,12.8,0,0,1,12.8-12.8H435.2A12.8,12.8,0,0,1,448,384Z"/>
	<path class="cls-5" d="M396.8,435.2A12.8,12.8,0,0,1,384,448H294.4a12.8,12.8,0,0,1-12.8-12.8h0a12.8,12.8,0,0,1,12.8-12.8H384a12.8,12.8,0,0,1,12.8,12.8Z"/>
</svg>