<?xml version="1.0" encoding="UTF-8" standalone="no"?>
<!-- (https://github.com/arashyeganeh/) -->
<svg xmlns:inkscape="http://www.inkscape.org/namespaces/inkscape" xmlns:sodipodi="http://sodipodi.sourceforge.net/DTD/sodipodi-0.dtd" xmlns:xlink="http://www.w3.org/1999/xlink" xmlns="http://www.w3.org/2000/svg" xmlns:svg="http://www.w3.org/2000/svg" height="200px" viewBox="0 0 40.268806 17.913477" version="1.1" id="svg5" xml:space="preserve" inkscape:version="1.2.1 (9c6d41e410, 2022-07-14)" sodipodi:docname="banner-pre-export.svg" inkscape:export-filename="..\..\..\..\Users\Arash\Desktop\banner-pre-export.svg" inkscape:export-xdpi="96" inkscape:export-ydpi="96"><sodipodi:namedview id="namedview7" pagecolor="#ffffff" bordercolor="#000000" borderopacity="0.25" inkscape:showpageshadow="2" inkscape:pageopacity="0.0" inkscape:pagecheckerboard="0" inkscape:deskcolor="#d1d1d1" inkscape:document-units="mm" showgrid="false" inkscape:zoom="4.6823232" inkscape:cx="51.683745" inkscape:cy="26.48258" inkscape:window-width="1600" inkscape:window-height="837" inkscape:window-x="-8" inkscape:window-y="-8" inkscape:window-maximized="1" inkscape:current-layer="g595"/><defs id="defs2"><inkscape:path-effect effect="fillet_chamfer" id="path-effect4780" is_visible="true" lpeversion="1" nodesatellites_param="F,0,0,1,0,0.79375,0,1 @ F,0,0,1,0,0.79375,0,1 @ F,0,0,1,0,0.79375,0,1 @ F,0,0,1,0,0.79375,0,1 @ F,0,0,1,0,0.79375,0,1" unit="px" method="auto" mode="F" radius="3" chamfer_steps="1" flexible="false" use_knot_distance="true" apply_no_radius="true" apply_with_radius="true" only_selected="false" hide_knots="false"/><linearGradient id="linearGradient4671"><stop style="stop-color:#ffd43b;stop-opacity:1;" offset="0" id="stop4673"/><stop style="stop-color:#ffe873;stop-opacity:1" offset="1" id="stop4675"/></linearGradient><linearGradient id="linearGradient4689"><stop style="stop-color:#5a9fd4;stop-opacity:1;" offset="0" id="stop4691"/><stop style="stop-color:#306998;stop-opacity:1;" offset="1" id="stop4693"/></linearGradient><linearGradient inkscape:collect="always" xlink:href="#linearGradient4671" id="linearGradient1475" gradientUnits="userSpaceOnUse" gradientTransform="matrix(0.562541,0,0,0.567972,-14.99112,-11.702371)" x1="150.96111" y1="192.35176" x2="112.03144" y2="137.27299"/><linearGradient inkscape:collect="always" xlink:href="#linearGradient4689" id="linearGradient1478" gradientUnits="userSpaceOnUse" gradientTransform="matrix(0.562541,0,0,0.567972,-14.99112,-11.702371)" x1="26.648937" y1="20.603781" x2="135.66525" y2="114.39767"/></defs><g inkscape:label="Layer 1" inkscape:groupmode="layer" id="layer1" inkscape:export-filename="..\..\..\..\Python-Tutorial-Persian-Test\image\header.svg" inkscape:export-xdpi="96" inkscape:export-ydpi="96" transform="translate(-0.22077345,-0.25663453)"><g inkscape:label="Layer 1" id="layer1-6" transform="translate(-0.39628383,-0.24968108)"><path id="rect4109" style="fill:#1d405d;fill-opacity:1;stroke-width:0.243898" d="M 0.61705729,1.8424479 V 17.626042 a 0.79375,0.79375 45 0 0 0.79375001,0.79375 H 40.092116 a 0.79375,0.79375 135 0 0 0.79375,-0.79375 V 1.313151 A 0.79375,0.79375 45 0 0 40.092116,0.51940104 H 1.4108073 A 0.67460886,0.67460886 146.30343 0 0 0.61705729,1.0486979 Z" inkscape:path-effect="#path-effect4780" inkscape:original-d="m 0.61705729,1.0486979 c 0,5.7903646 0,11.5807291 0,17.3710941 13.42293771,0 26.84587271,0 40.26880871,0 0,-5.966797 0,-11.9335941 0,-17.90039096 -13.422936,0 -26.845871,0 -40.26880871,0 0,0.1764323 0,0.35286459 0,0.52929686 z" inkscape:label="Shape"/><g id="g595" transform="translate(2.4557078,3.6854181)" inkscape:label="Text"><g aria-label="Python Tutorial" id="text585" style="font-weight:bold;font-size:3.17467px;font-family:Arial;-inkscape-font-specification:'Arial Bold';stroke-width:0.595249" inkscape:label="React Tutorial"><path d="M 16.124074,4.489571 V 5.2847886 H 15.659035 V 3.0277967 h 0.880475 q 0.254221,0 0.446438,0.093008 0.193766,0.093008 0.297625,0.2650725 0.103859,0.1705145 0.103859,0.3890831 0,0.3317282 -0.22787,0.5239446 -0.226319,0.1906662 -0.627803,0.1906662 z m 0,-0.3766821 h 0.415436 q 0.184465,0 0.280573,-0.086807 0.09766,-0.086807 0.09766,-0.2480211 0,-0.1658641 -0.09766,-0.2681728 -0.09766,-0.1023087 -0.269722,-0.105409 h -0.426287 z" style="font-family:Roboto;-inkscape-font-specification:'Roboto Bold';fill:#f9f9f9" id="path337"/><path d="M 18.326812,4.6507847 18.636838,3.607546 h 0.480541 l -0.674308,1.9376648 -0.0372,0.088357 q -0.150363,0.3286279 -0.496042,0.3286279 -0.09766,0 -0.198417,-0.029453 V 5.5932648 l 0.06821,0.00155 q 0.127111,0 0.189116,-0.038753 0.06356,-0.038753 0.09921,-0.128661 l 0.0527,-0.1379617 -0.5875,-1.681893 h 0.482091 z" style="font-family:Roboto;-inkscape-font-specification:'Roboto Bold';fill:#f9f9f9" id="path339"/><path d="M 19.83044,3.1952109 V 3.607546 h 0.286774 V 3.9361739 H 19.83044 v 0.8370712 q 0,0.093008 0.03565,0.1333113 0.03565,0.040303 0.136411,0.040303 0.07441,0 0.131761,-0.010851 v 0.3394789 q -0.131761,0.040303 -0.271273,0.040303 -0.47124,0 -0.480541,-0.4758904 v -0.903726 h -0.24492 V 3.607546 h 0.24492 V 3.1952109 Z" style="font-family:Roboto;-inkscape-font-specification:'Roboto Bold';fill:#f9f9f9" id="path341"/><path d="m 20.803922,3.7904615 q 0.178265,-0.2139182 0.447988,-0.2139182 0.545647,0 0.553397,0.634004 V 5.2847886 H 21.357319 V 4.2229483 q 0,-0.1441623 -0.062,-0.2123681 -0.06201,-0.069756 -0.206168,-0.069756 -0.196866,0 -0.285224,0.1519129 V 5.2847886 H 20.355934 V 2.9037861 h 0.447988 z" style="font-family:Roboto;-inkscape-font-specification:'Roboto Bold';fill:#f9f9f9" id="path343"/><path d="m 22.07348,4.430666 q 0,-0.2495713 0.09611,-0.4448879 0.09611,-0.1953166 0.275924,-0.3022757 0.181365,-0.1069591 0.420085,-0.1069591 0.339479,0 0.553398,0.2077177 0.215468,0.2077177 0.24027,0.564248 l 0.0031,0.1147097 q 0,0.3859829 -0.215468,0.6200528 -0.215468,0.2325197 -0.578199,0.2325197 -0.362731,0 -0.57975,-0.2325197 -0.21547,-0.2325198 -0.21547,-0.6324538 z m 0.447988,0.032553 q 0,0.2387203 0.08991,0.3658312 0.08991,0.1255606 0.257322,0.1255606 0.162764,0 0.254221,-0.1240105 0.09146,-0.1255607 0.09146,-0.399934 0,-0.2340699 -0.09146,-0.3627309 -0.09146,-0.1286609 -0.257322,-0.1286609 -0.164314,0 -0.254221,0.1286609 -0.08991,0.1271108 -0.08991,0.3952836 z" style="font-family:Roboto;-inkscape-font-specification:'Roboto Bold';fill:#f9f9f9" id="path345"/><path d="m 24.350624,3.607546 0.01395,0.1937665 q 0.179815,-0.2247692 0.482091,-0.2247692 0.266622,0 0.396834,0.1565634 Q 25.37371,3.88967 25.37681,4.2012465 V 5.2847886 H 24.928823 V 4.2120974 q 0,-0.1426121 -0.06201,-0.2061675 -0.06201,-0.065106 -0.206168,-0.065106 -0.189116,0 -0.283674,0.1612137 v 1.182751 H 23.928988 V 3.607546 Z" style="font-family:Roboto;-inkscape-font-specification:'Roboto Bold';fill:#f9f9f9" id="path347"/><path d="m 28.142247,3.4044787 h -0.691359 v 1.8803099 h -0.46504 V 3.4044787 H 26.30379 v -0.376682 h 1.838457 z" style="font-family:Roboto;-inkscape-font-specification:'Roboto Bold';fill:#f9f9f9" id="path349"/><path d="m 29.281593,5.1142741 q -0.165864,0.2015171 -0.458839,0.2015171 -0.269722,0 -0.412335,-0.1550131 Q 28.269357,5.0057649 28.266257,4.7065894 V 3.607546 h 0.447988 v 1.0835421 q 0,0.2619723 0.238721,0.2619723 0.227869,0 0.313126,-0.1581134 V 3.607546 h 0.449538 v 1.6772426 h -0.421635 z" style="font-family:Roboto;-inkscape-font-specification:'Roboto Bold';fill:#f9f9f9" id="path351"/><path d="M 30.589905,3.1952109 V 3.607546 h 0.286774 v 0.3286279 h -0.286774 v 0.8370712 q 0,0.093008 0.03565,0.1333113 0.03565,0.040303 0.136411,0.040303 0.07441,0 0.131762,-0.010851 v 0.3394789 q -0.131762,0.040303 -0.271273,0.040303 -0.471241,0 -0.480541,-0.4758904 V 3.9361739 H 29.896996 V 3.607546 h 0.244921 V 3.1952109 Z" style="font-family:Roboto;-inkscape-font-specification:'Roboto Bold';fill:#f9f9f9" id="path353"/><path d="m 31.00999,4.430666 q 0,-0.2495713 0.09611,-0.4448879 0.09611,-0.1953166 0.275924,-0.3022757 0.181365,-0.1069591 0.420086,-0.1069591 0.339478,0 0.553397,0.2077177 0.215468,0.2077177 0.24027,0.564248 l 0.0031,0.1147097 q 0,0.3859829 -0.215468,0.6200528 -0.215468,0.2325197 -0.578199,0.2325197 -0.362731,0 -0.57975,-0.2325197 -0.21547,-0.2325198 -0.21547,-0.6324538 z m 0.447988,0.032553 q 0,0.2387203 0.08991,0.3658312 0.08991,0.1255606 0.257322,0.1255606 0.162764,0 0.254221,-0.1240105 0.09146,-0.1255607 0.09146,-0.399934 0,-0.2340699 -0.09146,-0.3627309 -0.09146,-0.1286609 -0.257321,-0.1286609 -0.164314,0 -0.254222,0.1286609 -0.08991,0.1271108 -0.08991,0.3952836 z" style="font-family:Roboto;-inkscape-font-specification:'Roboto Bold';fill:#f9f9f9" id="path355"/><path d="m 33.817279,4.0276317 q -0.09146,-0.012401 -0.161214,-0.012401 -0.254222,0 -0.333278,0.1720647 V 5.2847886 H 32.874799 V 3.607546 h 0.423186 l 0.0124,0.199967 q 0.134861,-0.2309697 0.373581,-0.2309697 0.07441,0 0.139512,0.020152 z" style="font-family:Roboto;-inkscape-font-specification:'Roboto Bold';fill:#f9f9f9" id="path357"/><path d="M 34.505538,5.2847886 H 34.056 V 3.607546 h 0.449538 z m -0.47589,-2.1112795 q 0,-0.1007586 0.06665,-0.1658641 0.06821,-0.065106 0.184466,-0.065106 0.11471,0 0.182916,0.065106 0.06821,0.065106 0.06821,0.1658641 0,0.1023087 -0.06976,0.1674142 -0.06821,0.065106 -0.181366,0.065106 -0.113159,0 -0.182915,-0.065106 -0.06821,-0.065106 -0.06821,-0.1674142 z" style="font-family:Roboto;-inkscape-font-specification:'Roboto Bold';fill:#f9f9f9" id="path359"/><path d="m 35.846401,5.2847886 q -0.031,-0.060455 -0.04495,-0.1503628 -0.162763,0.1813654 -0.423186,0.1813654 -0.24647,0 -0.409234,-0.1426121 -0.161214,-0.1426121 -0.161214,-0.3596306 0,-0.2666226 0.196867,-0.4092348 0.198417,-0.1426121 0.571998,-0.1441622 h 0.206168 v -0.096108 q 0,-0.1162599 -0.06045,-0.1860158 -0.05891,-0.069756 -0.187566,-0.069756 -0.11316,0 -0.178265,0.054255 -0.06356,0.054255 -0.06356,0.1488126 h -0.447988 q 0,-0.1457124 0.08991,-0.2697229 0.08991,-0.1240106 0.254221,-0.1937665 0.164314,-0.071306 0.368932,-0.071306 0.310026,0 0.491392,0.1565634 0.182915,0.1550131 0.182915,0.4371371 v 0.7270119 q 0.0015,0.2387203 0.06666,0.3611807 V 5.284789 Z M 35.47592,4.9732121 q 0.09921,0 0.182915,-0.043404 0.08371,-0.044954 0.124011,-0.1193601 V 4.5221237 h -0.167414 q -0.336379,0 -0.358081,0.2325198 l -0.0016,0.026352 q 0,0.083707 0.05891,0.1379617 0.0589,0.054255 0.161214,0.054255 z" style="font-family:Roboto;-inkscape-font-specification:'Roboto Bold';fill:#f9f9f9" id="path361"/><path d="M 37.049304,5.2847886 H 36.599766 V 2.9037861 h 0.449538 z" style="font-family:Roboto;-inkscape-font-specification:'Roboto Bold';fill:#f9f9f9" id="path363"/></g><g aria-label="Persian  | " id="text589" style="font-size:3.17467px;fill:#61dafb;stroke-width:0.595249" inkscape:label="Persian"><path d="M 16.124074,8.0266551 V 8.8218727 H 15.659035 V 6.5648808 h 0.880475 q 0.254221,0 0.446438,0.093008 0.193766,0.093008 0.297625,0.2650725 0.103859,0.1705145 0.103859,0.3890831 0,0.3317282 -0.22787,0.5239446 -0.226319,0.1906662 -0.627803,0.1906662 z m 0,-0.376682 h 0.415436 q 0.184465,0 0.280573,-0.086807 0.09766,-0.086807 0.09766,-0.2480211 0,-0.1658641 -0.09766,-0.2681728 -0.09766,-0.1023087 -0.269722,-0.105409 h -0.426287 z" style="fill:#ffd948" id="path366"/><path d="m 18.42912,8.8528753 q -0.368931,0 -0.601451,-0.2263192 Q 17.5967,8.4002369 17.5967,8.0235548 v -0.043404 q 0,-0.2526715 0.09766,-0.4510883 0.09766,-0.199967 0.275923,-0.3069261 0.179816,-0.1085093 0.409235,-0.1085093 0.344129,0 0.540996,0.2170185 0.198417,0.2170184 0.198417,0.6154023 V 8.1289635 H 18.05089 q 0.0217,0.164314 0.130211,0.2635224 0.11006,0.099208 0.277474,0.099208 0.258872,0 0.404584,-0.1875659 l 0.220119,0.2464709 q -0.100759,0.1426122 -0.272823,0.223219 -0.172065,0.079057 -0.381333,0.079057 z m -0.05115,-1.376517 q -0.133311,0 -0.217019,0.089908 -0.08216,0.089908 -0.105408,0.2573219 h 0.623153 v -0.035653 q -0.0031,-0.1488127 -0.08061,-0.2294195 -0.07751,-0.082157 -0.220119,-0.082157 z" style="fill:#ffd948" id="path368"/><path d="m 20.315631,7.5647158 q -0.09146,-0.012401 -0.161214,-0.012401 -0.254222,0 -0.333278,0.1720647 V 8.8218727 H 19.373151 V 7.1446301 h 0.423186 l 0.0124,0.199967 q 0.134861,-0.2309697 0.373581,-0.2309697 0.07441,0 0.139512,0.020152 z" style="fill:#ffd948" id="path370"/><path d="m 21.439476,8.3583833 q 0,-0.082157 -0.08216,-0.1286609 -0.08061,-0.048054 -0.260422,-0.085257 -0.598351,-0.1255607 -0.598351,-0.5084432 0,-0.223219 0.184466,-0.3720317 0.186016,-0.1503628 0.485191,-0.1503628 0.319328,0 0.509994,0.1503628 0.192216,0.1503628 0.192216,0.3906332 h -0.447988 q 0,-0.096108 -0.062,-0.1581134 -0.06201,-0.063555 -0.193767,-0.063555 -0.113159,0 -0.175165,0.051154 -0.062,0.051154 -0.062,0.1302111 0,0.074406 0.06976,0.1209103 0.07131,0.044954 0.23872,0.079057 0.167415,0.032553 0.282124,0.074406 0.35498,0.130211 0.35498,0.4510883 0,0.2294195 -0.196866,0.3720317 -0.196867,0.1410619 -0.508444,0.1410619 -0.210817,0 -0.375131,-0.074406 -0.162764,-0.075956 -0.255772,-0.2061675 -0.09301,-0.1317612 -0.09301,-0.2836741 h 0.424736 q 0.0062,0.1193601 0.08836,0.1829155 0.08216,0.063555 0.220118,0.063555 0.128661,0 0.193767,-0.048054 0.06666,-0.049604 0.06666,-0.1286609 z" style="fill:#ffd948" id="path372"/><path d="M 22.636178,8.8218727 H 22.18664 V 7.1446301 h 0.449538 z m -0.47589,-2.1112795 q 0,-0.1007586 0.06666,-0.1658641 0.0682,-0.065106 0.184465,-0.065106 0.11471,0 0.182916,0.065106 0.06821,0.065106 0.06821,0.1658641 0,0.1023087 -0.06976,0.1674142 -0.06821,0.065105 -0.181366,0.065105 -0.113159,0 -0.182915,-0.065105 -0.06821,-0.065106 -0.06821,-0.1674142 z" style="fill:#ffd948" id="path374"/><path d="m 23.977042,8.8218727 q -0.031,-0.060455 -0.04495,-0.1503628 -0.162763,0.1813654 -0.423186,0.1813654 -0.24647,0 -0.409234,-0.1426121 -0.161214,-0.1426121 -0.161214,-0.3596306 0,-0.2666226 0.196867,-0.4092348 0.198417,-0.1426121 0.571998,-0.1441622 h 0.206168 v -0.096108 q 0,-0.1162599 -0.06046,-0.1860158 -0.0589,-0.069756 -0.187566,-0.069756 -0.11316,0 -0.178265,0.054255 -0.06356,0.054255 -0.06356,0.1488126 h -0.447988 q 0,-0.1457124 0.08991,-0.2697229 0.08991,-0.1240106 0.254221,-0.1937665 0.164314,-0.071306 0.368932,-0.071306 0.310026,0 0.491392,0.1565634 0.182915,0.1550131 0.182915,0.4371371 v 0.7270119 q 0.0015,0.2387203 0.06666,0.3611807 v 0.026352 z M 23.606561,8.5102962 q 0.09921,0 0.182915,-0.043404 0.08371,-0.044954 0.124011,-0.1193601 V 8.0592079 h -0.167414 q -0.336379,0 -0.358081,0.2325197 l -0.0016,0.026352 q 0,0.083707 0.05891,0.1379617 0.0589,0.054255 0.161214,0.054255 z" style="fill:#ffd948" id="path376"/><path d="m 25.119489,7.1446301 0.01395,0.1937665 q 0.179816,-0.2247692 0.482091,-0.2247692 0.266623,0 0.396834,0.1565634 0.130211,0.1565633 0.133311,0.4681398 V 8.8218727 H 25.697688 V 7.7491815 q 0,-0.1426121 -0.062,-0.2061675 -0.062,-0.065106 -0.206167,-0.065106 -0.189117,0 -0.283675,0.1612137 v 1.182751 H 24.697853 V 7.1446301 Z" style="fill:#ffd948" id="path378"/><path d="M 28.433671,9.2404083 H 28.162398 V 6.5648808 h 0.271273 z" style="fill:#ececec" id="path380"/></g><g aria-label="پارسی" id="text2898" style="font-weight:bold;font-size:2.82222px;font-family:'IRANSansWeb(FaNum)';-inkscape-font-specification:'IRANSansWeb(FaNum) Bold';fill:#61dafb;stroke-width:0.264583" inkscape:label="parsi"><path d="m 35.877469,8.194388 q 0,-0.040493 0.01595,-0.076077 0.01472,-0.035585 0.04049,-0.061353 0.02577,-0.026995 0.06135,-0.04172 0.03558,-0.014725 0.07608,-0.014725 h 0.136203 0.0589 q 0.05522,0 0.121478,-0.00491 0.06626,-0.00491 0.127613,-0.015952 0.06135,-0.011043 0.110435,-0.029449 0.05031,-0.019633 0.07362,-0.049082 0.0135,-0.02086 0.0135,-0.056444 0,-0.052763 -0.02577,-0.1251593 -0.02454,-0.072396 -0.0589,-0.1472463 -0.03436,-0.07485 -0.07117,-0.1435651 -0.03558,-0.068715 -0.05767,-0.1141159 l 0.34971,-0.1717873 q 0.03804,0.066261 0.07362,0.1570627 0.03558,0.089575 0.06381,0.1852849 0.02822,0.094483 0.0454,0.1865119 0.01718,0.090802 0.01718,0.1582898 0,0.1239322 -0.04417,0.2270046 -0.05154,0.1153429 -0.141111,0.1914202 -0.08957,0.07485 -0.214734,0.1104347 -0.03681,0.00982 -0.09203,0.015952 -0.05522,0.00614 -0.111662,0.00859 -0.05644,0.00368 -0.106753,0.00368 -0.05031,0.00123 -0.07853,0.00123 h -0.177922 -0.01104 q -0.04049,0 -0.07608,-0.014725 -0.03558,-0.014725 -0.06135,-0.04172 -0.02577,-0.025768 -0.04049,-0.061353 -0.01595,-0.035585 -0.01595,-0.076077 z m 0.92397,0.8196709 -0.230685,-0.2306859 -0.23314,0.23314 -0.235594,-0.2368211 0.238048,-0.2368211 0.230686,0.2306858 0.23314,-0.2331399 0.235594,0.2368211 z M 36.571981,8.9134406 36.790396,9.1318559 36.570754,9.3514982 36.352338,9.1330829 Z" style="fill:#ffd948" id="path383"/><path d="m 36.073795,8.3882622 q -0.150927,0 -0.258908,-0.038039 -0.10798,-0.036812 -0.186512,-0.1141159 -0.04908,-0.049082 -0.07608,-0.1030723 -0.02577,-0.05399 -0.03804,-0.1055265 -0.01104,-0.052763 -0.0135,-0.099391 -0.0012,-0.046628 -0.0012,-0.079758 v -0.018406 q 0.0012,-0.045401 0.0025,-0.1300676 0.0025,-0.085894 0.0025,-0.2012365 0,-0.1153429 -0.0012,-0.2539998 -0.0012,-0.1386569 -0.0074,-0.2760868 -0.0049,-0.1386569 -0.01595,-0.2662703 -0.0098,-0.1276134 -0.02822,-0.2220965 l 0.366889,-0.1116617 q 0.01595,0.080985 0.02577,0.1914201 0.0098,0.1092077 0.01595,0.2294588 0.0074,0.1202511 0.0098,0.2417293 0.0037,0.1214781 0.0049,0.2257776 0.0012,0.092029 -0.0074,0.1803767 -0.0074,0.087121 -0.01227,0.1717873 -0.0049,0.08344 0,0.1631979 0.0061,0.078531 0.03436,0.1533815 0.01104,0.028222 0.02699,0.042947 0.01718,0.014725 0.03927,0.022087 0.02209,0.00614 0.04785,0.00736 0.027,0.00123 0.0589,0.00123 h 0.01104 q 0.03927,0 0.07485,0.015952 0.03558,0.015952 0.06135,0.042947 0.02699,0.025768 0.04295,0.061353 0.01595,0.035585 0.01595,0.07485 0,0.040493 -0.01595,0.076077 -0.01595,0.035585 -0.04295,0.061353 -0.02577,0.026995 -0.06135,0.04172 -0.03558,0.014725 -0.07485,0.014725 z" style="fill:#ffd948" id="path385"/><path d="m 35.119149,7.488833 q 0.04663,0.1325216 0.08099,0.258908 0.01472,0.055217 0.02945,0.1153429 0.01472,0.058898 0.02577,0.119024 0.01227,0.058899 0.01963,0.11657 0.0074,0.056444 0.0074,0.1055265 0,0.1153429 -0.0319,0.2245505 -0.03068,0.1104347 -0.08835,0.2135071 -0.05644,0.1030724 -0.134976,0.1975554 -0.07853,0.09571 -0.174241,0.1791497 -0.09571,0.08344 -0.204918,0.1546085 -0.109208,0.072396 -0.225777,0.1300676 L 34.19886,8.993199 q 0.08835,-0.044174 0.17915,-0.1006183 0.08957,-0.055217 0.171787,-0.1190241 0.08344,-0.063807 0.154609,-0.1337487 0.0724,-0.069942 0.125159,-0.142338 0.05399,-0.072396 0.08467,-0.1472463 0.03068,-0.073623 0.03068,-0.1447922 0,-0.051536 -0.01472,-0.1116617 -0.0135,-0.060126 -0.03804,-0.1288405 -0.02331,-0.069942 -0.05644,-0.1472463 -0.03313,-0.078531 -0.07117,-0.1668791 z" style="fill:#ffd948" id="path387"/><path d="m 32.234352,8.195615 q 0,-0.038039 0.01472,-0.072396 0.01472,-0.034357 0.03927,-0.060125 0.02454,-0.026995 0.0589,-0.042947 0.03313,-0.017179 0.07117,-0.019633 0.09203,0 0.154608,-0.049082 0.06381,-0.050309 0.109208,-0.1312945 0.0454,-0.080986 0.0773,-0.1840579 0.0319,-0.1042994 0.06013,-0.21228 l 0.326395,0.058898 q -0.0098,0.042947 -0.02454,0.1006183 -0.0135,0.056444 -0.02577,0.117797 -0.01104,0.061353 -0.01841,0.1202511 -0.0074,0.057671 -0.0037,0.1018453 0.0049,0.044174 0.02331,0.069942 0.01841,0.024541 0.05644,0.018406 0.04908,-0.00368 0.08835,-0.034358 0.04049,-0.030676 0.0724,-0.078531 0.0319,-0.047855 0.05644,-0.1079806 0.02454,-0.060126 0.04172,-0.1239323 0.01841,-0.063807 0.02945,-0.1263864 0.01227,-0.06258 0.01963,-0.1141158 l 0.311671,0.052763 q -0.0012,0.036812 -0.0086,0.090802 -0.0074,0.05399 -0.0135,0.1141159 -0.0061,0.058899 -0.0061,0.119024 0,0.058898 0.0135,0.1067536 0.0135,0.046628 0.04417,0.076077 0.0319,0.029449 0.08835,0.029449 0.03436,0 0.06994,-0.011043 0.03558,-0.01227 0.06381,-0.03313 0.02822,-0.022087 0.0454,-0.051536 0.01841,-0.029449 0.01841,-0.066261 0,-0.063807 -0.02086,-0.139884 -0.02086,-0.077304 -0.05031,-0.1521545 -0.02945,-0.076077 -0.06258,-0.1435651 -0.0319,-0.067488 -0.05399,-0.1141158 L 34.204993,7.132988 q 0.0074,0.015952 0.02577,0.056444 0.0184,0.039266 0.04172,0.09571 0.02331,0.056444 0.04785,0.1276134 0.02577,0.069942 0.04663,0.1460192 0.02086,0.076077 0.03436,0.1558357 0.0135,0.079758 0.0135,0.1546085 0,0.1227053 -0.03436,0.2208694 -0.03313,0.098164 -0.101845,0.1668791 -0.06749,0.068715 -0.170561,0.1067536 -0.101845,0.038039 -0.239275,0.039266 -0.06626,0 -0.120251,-0.013498 -0.05399,-0.01227 -0.09694,-0.035584 -0.04295,-0.022087 -0.0773,-0.052763 -0.03313,-0.030676 -0.0589,-0.065034 -0.02945,0.038039 -0.06381,0.068715 -0.03313,0.029449 -0.0773,0.050309 -0.04295,0.022087 -0.09694,0.034357 -0.05399,0.012271 -0.122705,0.013498 -0.06013,0.00123 -0.109208,-0.011043 -0.04786,-0.011044 -0.08835,-0.03313 -0.04049,-0.022087 -0.07362,-0.052763 -0.0319,-0.031903 -0.06012,-0.069942 -0.02577,0.031903 -0.0589,0.060126 -0.03313,0.026995 -0.07853,0.047855 -0.0454,0.02086 -0.105527,0.033131 -0.06012,0.01227 -0.139884,0.01227 h -0.02209 q -0.03804,-0.00245 -0.07117,-0.018406 -0.03436,-0.015952 -0.0589,-0.04172 -0.02454,-0.025768 -0.03927,-0.060125 -0.01472,-0.034358 -0.01472,-0.073623 z" style="fill:#ffd948" id="path389"/><path d="m 31.315288,9.1883003 q -0.114116,0 -0.235594,-0.013498 -0.120251,-0.012271 -0.23314,-0.047855 -0.111661,-0.035585 -0.208599,-0.1006183 -0.09694,-0.063807 -0.163198,-0.1668791 -0.06258,-0.099391 -0.09694,-0.2184153 -0.03436,-0.1190241 -0.03436,-0.2662704 0,-0.1079805 0.0086,-0.2049177 0.0098,-0.098164 0.02945,-0.1938742 0.01963,-0.09571 0.05031,-0.1938743 0.0319,-0.098164 0.07608,-0.2085988 l 0.315352,0.1312945 q -0.03558,0.088348 -0.06135,0.1595168 -0.02454,0.071169 -0.04172,0.1300676 -0.01718,0.057671 -0.02699,0.1067535 -0.0098,0.049082 -0.01473,0.094483 -0.0049,0.044174 -0.0061,0.088348 -0.0012,0.042947 -0.0012,0.090802 0,0.092029 0.02945,0.1595168 0.02945,0.067488 0.07976,0.1141159 0.05031,0.046628 0.115343,0.076077 0.06626,0.030676 0.13743,0.046628 0.07117,0.015952 0.143565,0.022087 0.07362,0.00614 0.138657,0.00614 0.0319,0 0.09448,-0.00491 0.06258,-0.00368 0.136203,-0.014725 0.07485,-0.00982 0.152155,-0.026995 0.07853,-0.017179 0.142338,-0.042947 0.06381,-0.024541 0.104299,-0.058898 0.04049,-0.03313 0.04049,-0.078531 0,-0.00491 -0.02086,-0.017179 -0.01963,-0.012271 -0.05522,-0.029449 -0.03436,-0.015952 -0.08099,-0.036812 -0.0454,-0.019633 -0.09816,-0.040493 h 0.0012 q -0.0589,-0.018406 -0.123932,-0.031903 -0.06381,-0.01227 -0.126387,-0.022087 -0.0098,-0.00123 -0.02577,-0.00368 -0.01472,-0.00245 -0.03068,-0.00614 -0.01595,-0.00245 -0.0319,-0.00614 -0.01473,-0.00245 -0.02454,-0.00491 L 31.4184,8.0005064 h 0.984096 q 0.03927,0 0.07485,0.014725 0.03558,0.014725 0.06135,0.04172 0.02699,0.025768 0.04295,0.061353 0.01595,0.035585 0.01595,0.076077 0,0.040493 -0.01595,0.076077 -0.01595,0.035585 -0.04295,0.061353 -0.02577,0.026995 -0.06135,0.04172 -0.03559,0.014725 -0.07485,0.014725 h -0.136203 q 0.02577,0.049082 0.03681,0.098164 0.01227,0.050309 0.0135,0.085894 -0.0061,0.1153429 -0.0589,0.2049177 -0.05154,0.090802 -0.133748,0.1595168 -0.08221,0.068715 -0.186512,0.1165699 -0.1043,0.047855 -0.213507,0.077304 -0.109208,0.030676 -0.215962,0.044174 -0.105526,0.013498 -0.192647,0.013498 z" style="fill:#ffd948" id="path391"/></g></g><g id="g509" transform="matrix(0.26458333,0,0,0.26458333,6.5415906,24.214708)" inkscape:label="Logo"><ellipse style="fill:#ffffff;fill-opacity:1;stroke-width:0.264583" id="path1609-9" cx="8.0094118" cy="11.046566" rx="1.0736301" ry="1.0171232" transform="matrix(3.7795276,0,0,3.7795276,-15.442707,-77.591018)" inkscape:label="Circle-White"/><ellipse style="fill:#ffffff;fill-opacity:1;stroke-width:0.264583" id="path1609" cx="4.4388638" cy="0.46323529" rx="1.0736301" ry="1.0171232" transform="matrix(3.7795276,0,0,3.7795276,-15.442707,-77.591018)" inkscape:label="Circle-White"/><g id="g588" transform="matrix(0.47549765,0,0,0.47549765,-18.366951,-82.474639)"><path style="fill:url(#linearGradient1478);fill-opacity:1" d="M 54.918785,9.1927389e-4 C 50.335132,0.02221727 45.957846,0.41313697 42.106285,1.0946693 30.760069,3.0991731 28.700036,7.2947714 28.700035,15.032169 v 10.21875 h 26.8125 v 3.40625 h -26.8125 -10.0625 c -7.792459,0 -14.6157588,4.683717 -16.7499998,13.59375 -2.46181998,10.212966 -2.57101508,16.586023 0,27.25 1.9059283,7.937852 6.4575432,13.593748 14.2499998,13.59375 h 9.21875 v -12.25 c 0,-8.849902 7.657144,-16.656248 16.75,-16.65625 h 26.78125 c 7.454951,0 13.406253,-6.138164 13.40625,-13.625 v -25.53125 c 0,-7.2663386 -6.12998,-12.7247771 -13.40625,-13.9374997 C 64.281548,0.32794397 59.502438,-0.02037903 54.918785,9.1927389e-4 Z m -14.5,8.21875012611 c 2.769547,0 5.03125,2.2986456 5.03125,5.1249996 -2e-6,2.816336 -2.261703,5.09375 -5.03125,5.09375 -2.779476,-1e-6 -5.03125,-2.277415 -5.03125,-5.09375 -10e-7,-2.826353 2.251774,-5.1249996 5.03125,-5.1249996 z" id="path1948"/><path style="fill:url(#linearGradient1475);fill-opacity:1" d="m 85.637535,28.657169 v 11.90625 c 0,9.230755 -7.825895,16.999999 -16.75,17 h -26.78125 c -7.335833,0 -13.406249,6.278483 -13.40625,13.625 v 25.531247 c 0,7.266344 6.318588,11.540324 13.40625,13.625004 8.487331,2.49561 16.626237,2.94663 26.78125,0 6.750155,-1.95439 13.406253,-5.88761 13.40625,-13.625004 V 86.500919 h -26.78125 v -3.40625 h 26.78125 13.406254 c 7.792461,0 10.696251,-5.435408 13.406241,-13.59375 2.79933,-8.398886 2.68022,-16.475776 0,-27.25 -1.92578,-7.757441 -5.60387,-13.59375 -13.406241,-13.59375 z m -15.0625,64.65625 c 2.779478,3e-6 5.03125,2.277417 5.03125,5.093747 -2e-6,2.826354 -2.251775,5.125004 -5.03125,5.125004 -2.76955,0 -5.03125,-2.29865 -5.03125,-5.125004 2e-6,-2.81633 2.261697,-5.093747 5.03125,-5.093747 z" id="path1950"/></g></g></g></g></svg>
